<?xml version="1.0" encoding="UTF-8"?>
<!DOCTYPE svg PUBLIC "-//W3C//DTD SVG 1.1//EN" "http://www.w3.org/Graphics/SVG/1.1/DTD/svg11.dtd">
<!-- Creator: CorelDRAW -->
<svg xmlns="http://www.w3.org/2000/svg" xml:space="preserve" width="2.86566in" height="2.973in" version="1.1" style="shape-rendering:geometricPrecision; text-rendering:geometricPrecision; image-rendering:optimizeQuality; fill-rule:evenodd; clip-rule:evenodd"
viewBox="0 0 1398.63 1451.01"
 xmlns:xlink="http://www.w3.org/1999/xlink"
 xmlns:xodm="http://www.corel.com/coreldraw/odm/2003">
 <defs>
  <style type="text/css">
   <![CDATA[
    .fil1 {fill:#5F5E5E}
    .fil0 {fill:black}
   ]]>
  </style>
 </defs>
 <g id="Layer_x0020_1">
  <metadata id="CorelCorpID_0Corel-Layer"/>
  <path class="fil0" d="M884.43 371.19c116.55,61.7 174.83,92.56 174.83,92.56 0.68,33.57 45.86,-331.81 -246.82,-442.22 -104.35,-34.41 -203.76,-27.56 -298.23,20.58 -194.88,101.22 -174.83,355.3 -174.83,524.49 0,0 -113.12,65.13 -339.37,195.39 0,0 27.43,51.42 82.27,154.26 0,0 34.28,-20.56 102.85,-61.7 0,0 30.85,198.83 92.56,596.48 0,0 277.67,0 833.01,0 0,0 37.7,-198.83 113.12,-596.48 0,0 30.85,17.14 92.56,51.43 0,0 27.43,-47.99 82.27,-143.98 0,0 -236.53,-137.12 -709.6,-411.35 0,0 -58.28,34.28 -174.83,102.83 0,0 0,-37.7 0,-113.12 46.09,-229.97 357.4,-239.07 370.23,30.85zm148.66 404.84c-54.86,329.09 -82.28,493.64 -82.28,493.64 0,0 -161.11,3.43 -483.35,10.28 0,0 -30.85,-174.83 -92.56,-524.49 0,0 102.85,-61.71 308.52,-185.11 233.1,137.12 349.66,205.69 349.66,205.69z"/>
  <path class="fil0" d="M768.2 945.3c45.09,107.81 83.12,164.38 46.28,128.56 40.1,24.44 -42.88,11.42 -225.09,19.56 0,0 15.99,-62.41 50.26,-148.12 -114.63,-111.61 76.41,-266.3 154.26,-118.26 20.95,36.38 12.39,75.81 -25.71,118.26z"/>
  <path class="fil1" d="M939.62 1270.96c31.52,-3.38 47.28,-5.06 47.28,-5.06 63.04,-331.03 94.57,-496.55 94.57,-496.55 0,0 -122.59,-70.94 -367.77,-212.8 0,0 -7,6.76 -21.01,20.28 252.27,142.88 347.33,205.86 330.99,202.67 -56.03,327.65 -84.06,491.47 -84.06,491.47z"/>
 </g>
</svg>
